<svg xmlns="http://www.w3.org/2000/svg" width="26.568" height="27.477" viewBox="0 0 26.568 27.477"><defs><style>.a{fill:#707070;}</style></defs><g transform="translate(0 0)"><g transform="translate(7.065 0)"><path class="a" d="M147.675,13.824a1.77,1.77,0,0,0-.181-.152,1.833,1.833,0,0,0-2.293.221l-.115.115a3.543,3.543,0,0,0-.611.823l-.611,1.133V1.895a1.833,1.833,0,0,0-1.47-1.868A1.771,1.771,0,0,0,140.321,1.8V15.965l-.885-1.585-.558-.558a1.771,1.771,0,0,0-2.5,0q-.052.052-.1.107a1.842,1.842,0,0,0,.168,2.479l4.348,4.348a1.771,1.771,0,0,0,2.5,0h0l4.427-4.427A1.771,1.771,0,0,0,147.675,13.824Z" transform="translate(-135.873 0)"/></g><g transform="translate(0 7.995)"><g transform="translate(0)"><path class="a" d="M34.776,159.525V148.793a4.212,4.212,0,0,0-4.427-4.312H25.992a1.771,1.771,0,0,0,0,3.542h4.277c.753,0,.885.106.965.947v10.475c0,.673-.168.885-.947.965H12.7c-.823-.062-.885-.257-.947-.885V148.979c0-.965.3-.965.885-.965h4.427a1.771,1.771,0,0,0,0-3.542H12.639c-2.656,0-4.312,1.665-4.427,4.427v10.7a4.233,4.233,0,0,0,4.106,4.355q.1,0,.206,0h17.94a4.3,4.3,0,0,0,4.314-4.293Q34.778,159.592,34.776,159.525Z" transform="translate(-8.21 -144.472)"/></g></g></g></svg>