<svg xmlns="http://www.w3.org/2000/svg" width="23.533" height="26.683" viewBox="0 0 23.533 26.683"><defs><style>.a{fill:#707070;}</style></defs><g transform="translate(-36.121)"><g transform="translate(36.121)"><path class="a" d="M148.035,13.524c3.757,0,5.109-3.762,5.463-6.852C153.934,2.865,152.133,0,148.035,0s-5.9,2.865-5.463,6.672C142.926,9.762,144.277,13.525,148.035,13.524Z" transform="translate(-137.869)"/><path class="a" d="M54.5,298.187q.181,0,.36.01a2.872,2.872,0,0,0-.628-.661,10.207,10.207,0,0,0-2.484-1.04,10.746,10.746,0,0,1-1.1-.494,5.946,5.946,0,0,1-8.727,0,10.747,10.747,0,0,1-1.1.494,10.209,10.209,0,0,0-2.484,1.04c-1.249.932-1.571,3.028-1.825,4.458a25.637,25.637,0,0,0-.391,3.584c-.032.929.427,1.059,1.2,1.339a22.5,22.5,0,0,0,2.989.825,30.126,30.126,0,0,0,5.971.744,24.009,24.009,0,0,0,2.912-.211,6.437,6.437,0,0,1,5.3-10.089Z" transform="translate(-36.121 -283.097)"/><path class="a" d="M344.688,375.658a5.152,5.152,0,1,0,5.152,5.152A5.152,5.152,0,0,0,344.688,375.658Zm2.254,6.036h-1.37v1.37a.884.884,0,1,1-1.768,0v-1.37h-1.37a.884.884,0,0,1,0-1.768h1.37v-1.37a.884.884,0,1,1,1.768,0v1.37h1.37a.884.884,0,0,1,0,1.768Z" transform="translate(-326.307 -359.28)"/></g></g></svg>