<svg xmlns="http://www.w3.org/2000/svg" width="90.972" height="60.588" viewBox="0 0 90.972 60.588"><defs><style>.a{fill:#fff;}</style></defs><g transform="translate(0 -85.5)"><g transform="translate(0 85.5)"><g transform="translate(0 0)"><path class="a" d="M49.3,85.5a21.356,21.356,0,0,0-3.811.342,21.112,21.112,0,0,0-11.494,6.182,18.127,18.127,0,0,0-21.459,15.325,15.032,15.032,0,0,0,1.679,29.832,18.667,18.667,0,0,1,10.17-21.289A23.989,23.989,0,0,1,48.107,95.45a23.768,23.768,0,0,1,15.119,5.359q.547-.028,1.094-.028a21.271,21.271,0,0,1,5.547.737A21.252,21.252,0,0,0,49.3,85.5Z" transform="translate(0 -85.5)"/></g></g><g transform="translate(19.012 100.78)"><path class="a" d="M58.634,45.308H13.326a13.328,13.328,0,0,1-2.885-26.337c0-.114,0-.217,0-.314a18.541,18.541,0,0,1,2.687-9.637,18.789,18.789,0,0,1,7.024-6.73,18.474,18.474,0,0,1,6.324-2.1,18.761,18.761,0,0,1,6.342.186,18.578,18.578,0,0,1,9.6,5.223,16.018,16.018,0,0,1,16.857,7.941,15.834,15.834,0,0,1,1.842,5.353,13.207,13.207,0,0,1,4.3,1.624,13.4,13.4,0,0,1,5.722,6.847,13.328,13.328,0,0,1-12.5,17.951ZM32.741,6.331a1.83,1.83,0,0,0-1.167.456L15.392,22.97a1.911,1.911,0,0,0-.507,1.217,1.562,1.562,0,0,0,1.624,1.623h9.74V43.667a1.562,1.562,0,0,0,1.623,1.622h9.741a1.563,1.563,0,0,0,1.623-1.622V25.811h9.739a1.661,1.661,0,0,0,.938-.254A1.6,1.6,0,0,0,50.5,24.8a1.567,1.567,0,0,0,.114-.926,1.754,1.754,0,0,0-.47-.85L33.907,6.788A1.834,1.834,0,0,0,32.741,6.331Z"/></g></g></svg>