<?xml version="1.0" standalone="no"?>
<!DOCTYPE svg PUBLIC "-//W3C//DTD SVG 20010904//EN"
 "http://www.w3.org/TR/2001/REC-SVG-20010904/DTD/svg10.dtd">
<svg version="1.0" xmlns="http://www.w3.org/2000/svg"
 width="700.000000pt" height="700.000000pt" viewBox="0 0 700.000000 700.000000"
 preserveAspectRatio="xMidYMid meet">
<metadata>
Created by potrace 1.11, written by Peter Selinger 2001-2013
</metadata>
<g transform="translate(0.000000,700.000000) scale(0.100000,-0.100000)"
fill="#000000" stroke="none">
<path d="M2624 6975 c-28 -14 -58 -33 -67 -43 -15 -17 -96 -166 -222 -407 -38
-71 -71 -134 -75 -140 -4 -5 -27 -47 -50 -92 -29 -59 -48 -84 -63 -88 -21 -4
-105 -19 -172 -30 -65 -11 -91 -15 -115 -20 -14 -3 -41 -8 -60 -11 -19 -3 -42
-7 -50 -9 -8 -2 -35 -7 -60 -10 -138 -19 -318 -58 -349 -76 -39 -22 -82 -76
-98 -124 -13 -38 -9 -116 12 -235 4 -24 13 -87 21 -143 4 -32 6 -45 39 -277
14 -95 25 -179 25 -186 0 -12 -9 -22 -339 -363 -112 -115 -213 -225 -224 -243
-10 -18 -22 -58 -24 -89 -7 -77 16 -124 113 -225 79 -83 314 -325 417 -431
l60 -62 -11 -83 c-7 -46 -14 -92 -16 -103 -2 -11 -7 -42 -10 -70 -4 -27 -9
-63 -11 -80 -14 -92 -20 -136 -30 -208 -3 -23 -10 -71 -15 -107 -24 -158 -19
-204 34 -273 40 -52 92 -72 261 -101 83 -14 164 -28 180 -31 17 -3 57 -10 90
-16 33 -6 92 -16 130 -23 l70 -12 0 -1195 1 -1194 23 -48 c42 -86 136 -137
228 -123 21 4 307 141 636 305 l598 299 601 -301 c643 -321 644 -322 734 -294
53 16 110 71 131 125 17 44 18 110 18 1235 -1 1059 1 1188 15 1192 18 5 326
61 390 70 123 18 245 46 273 64 82 51 117 141 97 252 -4 24 -11 71 -15 104 -3
33 -8 69 -10 80 -3 11 -7 38 -10 60 -3 22 -13 87 -21 145 -8 58 -17 123 -19
145 -3 22 -7 51 -10 64 -2 13 -7 46 -10 75 l-5 51 116 120 c64 66 185 191 269
277 84 86 163 173 175 193 13 22 24 58 26 93 8 93 -13 122 -266 383 -288 295
-320 330 -320 346 0 7 7 55 15 106 8 50 17 119 21 152 3 33 7 62 9 65 2 3 6
30 10 60 4 30 9 66 11 80 2 14 6 49 9 79 4 30 8 57 10 61 6 10 19 144 18 186
-2 93 -77 181 -169 199 -31 6 -225 40 -284 50 -19 3 -57 10 -85 15 -27 5 -63
12 -80 15 -179 31 -273 47 -285 50 -8 2 -18 4 -22 4 -3 1 -13 13 -21 29 -49
96 -152 292 -167 317 -10 17 -48 89 -85 160 -107 206 -134 243 -200 269 -40
17 -127 15 -169 -4 -44 -19 -371 -178 -573 -278 l-123 -61 -112 56 c-109 53
-284 138 -510 248 -131 63 -178 68 -254 30z m393 -581 c389 -189 419 -203 463
-207 57 -6 102 10 275 96 231 115 424 207 433 207 4 0 28 -42 55 -92 26 -51
64 -124 85 -163 21 -38 71 -132 110 -207 100 -187 131 -216 262 -237 36 -6
115 -20 175 -31 61 -10 180 -31 265 -46 85 -15 158 -31 161 -36 4 -6 3 -26 -1
-47 -5 -20 -11 -58 -15 -86 -3 -27 -8 -61 -10 -75 -2 -14 -7 -43 -9 -65 -11
-85 -38 -272 -44 -305 -12 -66 -7 -154 12 -193 19 -39 32 -53 263 -292 75 -77
158 -163 186 -191 l49 -52 -124 -127 c-392 -404 -389 -399 -393 -490 -2 -27 5
-104 15 -170 11 -66 22 -140 25 -165 3 -25 11 -76 16 -115 6 -38 13 -90 16
-115 3 -25 9 -64 13 -87 l7 -41 -61 -11 c-34 -6 -71 -13 -82 -15 -12 -2 -37
-7 -55 -10 -19 -3 -43 -7 -54 -10 -11 -2 -40 -7 -65 -11 -25 -4 -52 -9 -61
-10 -9 -2 -34 -6 -55 -9 -120 -19 -255 -48 -281 -61 -53 -26 -78 -61 -165
-225 -64 -120 -144 -272 -194 -365 -24 -44 -47 -79 -52 -78 -5 1 -134 63 -288
139 -153 75 -296 142 -318 150 -49 18 -103 18 -152 0 -31 -11 -522 -248 -596
-287 -19 -10 -16 -15 -258 444 -89 169 -127 214 -197 235 -21 6 -130 27 -243
47 -113 19 -254 44 -315 55 -60 11 -112 20 -115 20 -3 0 4 69 16 153 12 83 25
172 28 197 4 25 11 80 17 123 5 42 14 98 18 124 5 26 8 72 6 103 -4 87 0 82
-372 463 l-145 149 44 46 c25 26 111 115 191 197 225 233 248 257 263 288 19
35 25 117 14 177 -4 25 -10 65 -13 90 -3 25 -11 79 -17 120 -6 41 -12 89 -15
105 -6 48 -37 269 -38 279 -2 10 38 21 113 31 25 3 90 15 145 25 55 10 114 21
130 23 63 10 261 47 285 53 32 9 79 41 105 72 19 22 181 321 283 519 26 51 50
93 54 93 4 0 96 -43 205 -96z m800 -4445 c406 -199 408 -200 464 -201 59 0
128 31 164 74 15 17 43 63 63 102 l37 71 3 -358 c1 -196 1 -517 0 -711 l-3
-355 -494 247 c-479 239 -497 247 -552 246 -55 -1 -84 -14 -551 -247 l-493
-246 -3 355 c-1 195 -1 515 0 712 l3 357 37 -71 c70 -136 121 -174 233 -175
48 -1 59 4 445 193 289 142 318 156 332 157 4 1 145 -67 315 -150z"/>
<path d="M3428 5855 c-2 -1 -34 -5 -73 -8 -335 -27 -667 -187 -912 -439 -92
-93 -128 -139 -198 -248 -104 -162 -189 -389 -211 -565 -13 -108 -14 -119 -15
-215 -7 -531 283 -1030 756 -1299 230 -132 473 -192 750 -186 200 4 307 23
475 83 453 161 820 560 934 1017 17 68 26 118 41 225 7 45 7 242 0 300 -45
414 -246 774 -570 1024 -195 151 -441 260 -656 290 -25 4 -58 9 -73 12 -29 5
-243 13 -248 9z m172 -439 c436 -37 827 -377 920 -801 6 -27 13 -61 16 -75 3
-14 7 -79 9 -146 7 -293 -97 -552 -303 -759 -128 -129 -281 -219 -455 -269
-474 -137 -980 79 -1212 517 -86 162 -119 298 -119 487 0 173 19 268 84 421
117 276 364 496 655 584 101 31 121 34 225 42 47 3 87 7 88 9 2 1 9 1 15 -1 7
-2 41 -6 77 -9z"/>
<path d="M4027 4973 c-44 -13 -81 -47 -384 -349 -185 -184 -339 -334 -342
-334 -3 0 -62 57 -131 126 -177 178 -244 206 -361 147 -72 -37 -111 -93 -117
-168 -8 -102 5 -122 256 -372 124 -123 238 -231 254 -239 16 -8 51 -18 78 -21
103 -12 103 -12 570 454 299 298 431 436 443 464 44 100 5 220 -89 275 -52 31
-113 37 -177 17z"/>
</g>
</svg>
