<svg xmlns="http://www.w3.org/2000/svg" width="18" height="19.636" viewBox="0 0 18 19.636"><defs><style>.a{fill:#707070;}</style></defs><g transform="translate(0)"><path class="a" d="M36.154,3.388a.4.4,0,0,0-.294-.115H31.91l-.895-2.135a1.772,1.772,0,0,0-.69-.805A1.806,1.806,0,0,0,29.314,0H25.223a1.8,1.8,0,0,0-1.01.332,1.771,1.771,0,0,0-.69.805l-.895,2.135h-3.95a.394.394,0,0,0-.409.409V4.5a.394.394,0,0,0,.409.409h1.227v12.17a2.8,2.8,0,0,0,.6,1.809,1.8,1.8,0,0,0,1.445.748H32.587a1.782,1.782,0,0,0,1.445-.773,2.9,2.9,0,0,0,.6-1.835V4.909H35.86a.394.394,0,0,0,.409-.409V3.682A.4.4,0,0,0,36.154,3.388ZM25.032,1.777a.36.36,0,0,1,.217-.141H29.3a.361.361,0,0,1,.217.141l.614,1.5H24.405ZM33,17.028a1.449,1.449,0,0,1-.09.518,1.153,1.153,0,0,1-.185.345c-.064.073-.108.109-.134.109H21.951c-.026,0-.07-.036-.134-.109a1.147,1.147,0,0,1-.186-.345,1.453,1.453,0,0,1-.089-.518V4.909H33V17.028Z" transform="translate(-18.269)"/><path class="a" d="M128.473,175.813h1.136a.547.547,0,0,0,.568-.568V165.017a.546.546,0,0,0-.568-.568h-1.136a.546.546,0,0,0-.568.568v10.227a.547.547,0,0,0,.568.568Z" transform="translate(-123.187 -159.131)"/><path class="a" d="M201.562,175.813H202.7a.547.547,0,0,0,.568-.568V165.017a.547.547,0,0,0-.568-.568h-1.136a.546.546,0,0,0-.568.568v10.227a.547.547,0,0,0,.568.568Z" transform="translate(-193.13 -159.131)"/><path class="a" d="M274.651,175.813h1.136a.546.546,0,0,0,.568-.568V165.017a.546.546,0,0,0-.568-.568h-1.136a.546.546,0,0,0-.568.568v10.227a.546.546,0,0,0,.568.568Z" transform="translate(-263.074 -159.131)"/></g></svg>