<svg xmlns="http://www.w3.org/2000/svg" width="32.323" height="85.719" viewBox="0 0 32.323 85.719"><defs><style>.a{fill:#fff;}</style></defs><g transform="translate(-147.392)"><path class="a" d="M179.715,24.234a10.734,10.734,0,0,0-1.885-6,23.247,23.247,0,0,1-3.89-13.057V1.873A1.918,1.918,0,0,0,171.98,0H155.127a1.918,1.918,0,0,0-1.961,1.873V5.18a23.248,23.248,0,0,1-3.89,13.058,10.731,10.731,0,0,0-1.885,6,11.281,11.281,0,0,0,4.058,8.46V47.338a12.117,12.117,0,0,0,24.208,0V32.694a11.282,11.282,0,0,0,4.058-8.46Zm-7.979,23.1a8.191,8.191,0,0,1-16.366,0V30.644a7.628,7.628,0,0,1,2.394-5.53,5.91,5.91,0,0,0,11.577.005,7.594,7.594,0,0,1,2.4,5.525V47.338Zm-10.124-23.1V16.78a1.943,1.943,0,0,1,3.882,0v7.453a1.943,1.943,0,0,1-3.882,0Zm13.5,2.96a11.425,11.425,0,0,0-3-4.725,12.037,12.037,0,0,0-2.7-1.939V16.78a5.868,5.868,0,0,0-11.724,0v3.745A11.648,11.648,0,0,0,152,27.193a6.849,6.849,0,0,1-.685-2.959,7.019,7.019,0,0,1,1.261-3.97A26.861,26.861,0,0,0,157.088,5.18V3.745H170.02V5.18a26.861,26.861,0,0,0,4.513,15.083,7.021,7.021,0,0,1,1.262,3.97A6.852,6.852,0,0,1,175.11,27.193Z" transform="translate(0 0)"/><path class="a" d="M208.046,212.536a4.942,4.942,0,0,0-4.937,4.936v2.5a4.937,4.937,0,0,0,9.873,0v-2.5A4.942,4.942,0,0,0,208.046,212.536Zm1.241,7.437a1.241,1.241,0,0,1-2.482,0v-2.5a1.241,1.241,0,0,1,2.482,0Z" transform="translate(-44.492 -172.839)"/><path class="a" d="M189.834,323.653h6.178a1.848,1.848,0,0,0,0-3.7h-6.178a1.848,1.848,0,0,0,0,3.7Z" transform="translate(-32.416 -260.265)"/><path class="a" d="M226.26,343.9h-6.178a1.848,1.848,0,1,0,0,3.7h6.178a1.848,1.848,0,0,0,0-3.7Z" transform="translate(-56.57 -279.737)"/><path class="a" d="M189.834,371.53h6.178a1.848,1.848,0,0,0,0-3.7h-6.178a1.848,1.848,0,1,0,0,3.7Z" transform="translate(-32.416 -299.082)"/><path class="a" d="M226.26,391.773h-6.178a1.848,1.848,0,1,0,0,3.7h6.178a1.848,1.848,0,1,0,0-3.7Z" transform="translate(-56.57 -318.597)"/><path class="a" d="M197.86,417.56a1.848,1.848,0,0,0-1.848-1.848h-6.178a1.848,1.848,0,1,0,0,3.7h6.178A1.848,1.848,0,0,0,197.86,417.56Z" transform="translate(-32.416 -338.113)"/><path class="a" d="M226.26,439.651h-6.178a1.848,1.848,0,1,0,0,3.7h6.178a1.848,1.848,0,0,0,0-3.7Z" transform="translate(-56.57 -357.628)"/></g></svg>