<svg xmlns="http://www.w3.org/2000/svg" width="65.782" height="53.821" viewBox="0 0 65.782 53.821"><g transform="translate(0 0)"><g transform="translate(0 0)"><circle cx="4.485" cy="4.485" r="4.485" transform="translate(47.841 8.97)"/><path d="M65.363,109.457a.427.427,0,0,0,.419-.433V56.07a.427.427,0,0,0-.419-.434H.422A.428.428,0,0,0,0,56.07v52.954a.427.427,0,0,0,.422.433H65.363ZM2.99,58.626h59.8v47.841H2.99Z" transform="translate(0 -55.636)"/><path d="M93.452,174.791a.806.806,0,0,0-1.16-.227l-8.262,5.81a.393.393,0,0,1-.571-.126l-9.736-16.816c-.233-.407-.607-.41-.825.009l-.963,1.854L54.847,198.248c-.218.422-.018.76.446.76h52.793c.449,0,.631-.323.377-.721Z" transform="translate(-48.873 -151.573)"/></g></g></svg>