<svg xmlns="http://www.w3.org/2000/svg" xmlns:xlink="http://www.w3.org/1999/xlink" width="68" height="68.454" viewBox="0 0 68 68.454"><defs><style>.a{filter:url(#a);}</style><filter id="a" x="0" y="0" width="68" height="68.454" filterUnits="userSpaceOnUse"><feOffset input="SourceAlpha"/><feGaussianBlur stdDeviation="6" result="b"/><feFlood flood-color="#fff"/><feComposite operator="in" in2="b"/><feComposite in="SourceGraphic"/></filter></defs><g transform="translate(18 18)"><g transform="translate(0)"><g class="a" transform="matrix(1, 0, 0, 1, -18, -18)"><path d="M22.211,11.914H20.225V9.928a1.986,1.986,0,1,0-3.971,0v1.986H14.268a1.986,1.986,0,1,0,0,3.971h1.986v1.986a1.986,1.986,0,1,0,3.971,0V15.885h1.986a1.986,1.986,0,1,0,0-3.971ZM35.759,29.064l-6.592-6.592a13.931,13.931,0,1,0-2.874,2.743l6.657,6.657a1.986,1.986,0,0,0,2.809-2.809Zm-9.8-8.172a1.95,1.95,0,0,0-.73.451,1.984,1.984,0,0,0-.438.663,10.559,10.559,0,1,1,1.168-1.114Z" transform="translate(13.66 18)"/></g></g></g></svg>